<svg width="377" height="72" viewBox="0 0 377 72" fill="none" xmlns="http://www.w3.org/2000/svg">
<path d="M78.4563 51.3475C76.2519 51.3475 74.3077 50.827 72.6237 49.786C70.9398 48.745 69.6232 47.3213 68.6741 45.5149C67.7249 43.7085 67.2504 41.6571 67.2504 39.3608C67.2504 37.0645 67.7249 35.0285 68.6741 33.2527C69.6232 31.4463 70.9398 30.0379 72.6237 29.0275C74.3383 27.9865 76.2978 27.466 78.5022 27.466C80.3086 27.466 81.8854 27.8181 83.2326 28.5223C84.6104 29.2265 85.682 30.2216 86.4474 31.5075V17.7297H91.3156V50.7964H86.9526L86.4474 47.2601C85.7126 48.3317 84.7022 49.2808 83.4163 50.1075C82.1304 50.9342 80.477 51.3475 78.4563 51.3475ZM79.3289 47.1223C81.4109 47.1223 83.1101 46.4028 84.4267 44.9638C85.7738 43.5248 86.4474 41.6724 86.4474 39.4068C86.4474 37.1105 85.7738 35.2581 84.4267 33.8497C83.1101 32.4107 81.4109 31.6912 79.3289 31.6912C77.2469 31.6912 75.5323 32.4107 74.1852 33.8497C72.838 35.2581 72.1644 37.1105 72.1644 39.4068C72.1644 40.907 72.4706 42.2389 73.083 43.4023C73.6953 44.5658 74.5373 45.4843 75.6089 46.1579C76.7111 46.8008 77.9511 47.1223 79.3289 47.1223ZM99.2905 23.7001C98.372 23.7001 97.6066 23.4245 96.9942 22.8734C96.4125 22.2917 96.1216 21.5722 96.1216 20.7149C96.1216 19.8576 96.4125 19.1534 96.9942 18.6023C97.6066 18.0206 98.372 17.7297 99.2905 17.7297C100.209 17.7297 100.959 18.0206 101.541 18.6023C102.153 19.1534 102.459 19.8576 102.459 20.7149C102.459 21.5722 102.153 22.2917 101.541 22.8734C100.959 23.4245 100.209 23.7001 99.2905 23.7001ZM96.8564 50.7964V28.0171H101.725V50.7964H96.8564ZM116.555 43.8156C115.361 43.8156 114.259 43.6779 113.249 43.4023L111.274 45.3312C111.611 45.5455 112.024 45.7292 112.514 45.8823C113.004 46.0354 113.693 46.1732 114.581 46.2956C115.469 46.4181 116.678 46.5406 118.209 46.6631C121.24 46.9386 123.429 47.6734 124.776 48.8675C126.123 50.031 126.797 51.5924 126.797 53.5519C126.797 54.8991 126.43 56.1697 125.695 57.3638C124.991 58.5885 123.873 59.5682 122.342 60.3031C120.842 61.0685 118.913 61.4512 116.555 61.4512C113.371 61.4512 110.784 60.8389 108.794 59.6142C106.834 58.4201 105.855 56.5984 105.855 54.149C105.855 53.1998 106.1 52.2507 106.59 51.3016C107.11 50.3831 107.921 49.5105 109.024 48.6838C108.381 48.4082 107.814 48.1174 107.324 47.8112C106.865 47.4744 106.452 47.1376 106.084 46.8008V45.6986L110.034 41.6571C108.258 40.1263 107.37 38.1208 107.37 35.6408C107.37 34.1406 107.722 32.7781 108.427 31.5534C109.161 30.2981 110.218 29.3031 111.595 28.5682C112.973 27.8334 114.627 27.466 116.555 27.466C117.841 27.466 119.035 27.6497 120.138 28.0171H128.634V31.2319L124.592 31.4616C125.327 32.7169 125.695 34.11 125.695 35.6408C125.695 37.1717 125.327 38.5495 124.592 39.7742C123.888 40.9989 122.847 41.9786 121.47 42.7134C120.122 43.4482 118.484 43.8156 116.555 43.8156ZM116.555 40.0038C117.964 40.0038 119.097 39.6364 119.954 38.9016C120.842 38.1361 121.286 37.0645 121.286 35.6868C121.286 34.2784 120.842 33.2068 119.954 32.4719C119.097 31.7371 117.964 31.3697 116.555 31.3697C115.116 31.3697 113.953 31.7371 113.065 32.4719C112.208 33.2068 111.779 34.2784 111.779 35.6868C111.779 37.0645 112.208 38.1361 113.065 38.9016C113.953 39.6364 115.116 40.0038 116.555 40.0038ZM110.447 53.6897C110.447 55.0063 111.029 55.986 112.192 56.629C113.356 57.3026 114.81 57.6393 116.555 57.6393C118.239 57.6393 119.602 57.2719 120.643 56.5371C121.684 55.8329 122.204 54.8838 122.204 53.6897C122.204 52.8018 121.852 52.0364 121.148 51.3934C120.444 50.7811 119.112 50.3984 117.152 50.2453C115.683 50.1534 114.382 50.0156 113.249 49.8319C112.177 50.4137 111.442 51.0413 111.044 51.7149C110.646 52.3885 110.447 53.0468 110.447 53.6897ZM134.813 23.7001C133.895 23.7001 133.129 23.4245 132.517 22.8734C131.935 22.2917 131.644 21.5722 131.644 20.7149C131.644 19.8576 131.935 19.1534 132.517 18.6023C133.129 18.0206 133.895 17.7297 134.813 17.7297C135.732 17.7297 136.482 18.0206 137.064 18.6023C137.676 19.1534 137.982 19.8576 137.982 20.7149C137.982 21.5722 137.676 22.2917 137.064 22.8734C136.482 23.4245 135.732 23.7001 134.813 23.7001ZM132.379 50.7964V28.0171H137.247V50.7964H132.379ZM153.548 51.3475C151.313 51.3475 149.307 50.8423 147.531 49.8319C145.786 48.8216 144.408 47.4285 143.398 45.6527C142.418 43.8463 141.928 41.7643 141.928 39.4068C141.928 37.0492 142.418 34.9826 143.398 33.2068C144.408 31.4003 145.786 29.9919 147.531 28.9816C149.307 27.9712 151.313 27.466 153.548 27.466C156.364 27.466 158.722 28.2008 160.62 29.6705C162.549 31.1401 163.789 33.1302 164.34 35.6408H159.243C158.936 34.3855 158.263 33.4058 157.222 32.7016C156.181 31.9974 154.956 31.6453 153.548 31.6453C152.354 31.6453 151.251 31.9514 150.241 32.5638C149.231 33.1455 148.419 34.0181 147.807 35.1816C147.195 36.3144 146.888 37.7228 146.888 39.4068C146.888 41.0907 147.195 42.5144 147.807 43.6779C148.419 44.8107 149.231 45.6833 150.241 46.2956C151.251 46.908 152.354 47.2142 153.548 47.2142C154.956 47.2142 156.181 46.8621 157.222 46.1579C158.263 45.4537 158.936 44.4586 159.243 43.1727H164.34C163.82 45.6221 162.595 47.5969 160.666 49.0971C158.737 50.5974 156.364 51.3475 153.548 51.3475ZM179.356 51.3475C177.182 51.3475 175.223 50.8576 173.478 49.8779C171.763 48.8675 170.401 47.4744 169.39 45.6986C168.38 43.8922 167.875 41.7949 167.875 39.4068C167.875 37.0186 168.38 34.9366 169.39 33.1608C170.431 31.3544 171.824 29.9613 173.57 28.9816C175.315 27.9712 177.259 27.466 179.402 27.466C181.576 27.466 183.52 27.9712 185.235 28.9816C186.98 29.9613 188.358 31.3544 189.368 33.1608C190.409 34.9366 190.93 37.0186 190.93 39.4068C190.93 41.7949 190.409 43.8922 189.368 45.6986C188.358 47.4744 186.98 48.8675 185.235 49.8779C183.49 50.8576 181.53 51.3475 179.356 51.3475ZM179.356 47.1682C180.52 47.1682 181.591 46.8774 182.571 46.2956C183.581 45.7139 184.393 44.8566 185.005 43.7238C185.618 42.5603 185.924 41.1213 185.924 39.4068C185.924 37.6922 185.618 36.2685 185.005 35.1356C184.423 33.9722 183.627 33.0996 182.617 32.5179C181.637 31.9361 180.566 31.6453 179.402 31.6453C178.239 31.6453 177.152 31.9361 176.141 32.5179C175.162 33.0996 174.366 33.9722 173.753 35.1356C173.141 36.2685 172.835 37.6922 172.835 39.4068C172.835 41.1213 173.141 42.5603 173.753 43.7238C174.366 44.8566 175.162 45.7139 176.141 46.2956C177.121 46.8774 178.193 47.1682 179.356 47.1682ZM195.276 50.7964V28.0171H199.593L200.006 31.2319C200.741 30.0685 201.705 29.15 202.899 28.4764C204.124 27.8028 205.532 27.466 207.125 27.466C210.737 27.466 213.248 28.8897 214.656 31.7371C215.483 30.4206 216.585 29.3796 217.963 28.6142C219.372 27.8487 220.887 27.466 222.51 27.466C225.357 27.466 227.592 28.3233 229.215 30.0379C230.838 31.7524 231.649 34.309 231.649 37.7075V50.7964H226.781V38.2127C226.781 33.8038 225.097 31.5993 221.729 31.5993C220.014 31.5993 218.606 32.2423 217.504 33.5282C216.432 34.8142 215.896 36.6512 215.896 39.0393V50.7964H211.028V38.2127C211.028 33.8038 209.329 31.5993 205.931 31.5993C204.247 31.5993 202.853 32.2423 201.751 33.5282C200.68 34.8142 200.144 36.6512 200.144 39.0393V50.7964H195.276ZM236.426 50.7964V28.0171H240.743L241.156 31.2319C241.891 30.0685 242.856 29.15 244.05 28.4764C245.274 27.8028 246.683 27.466 248.275 27.466C251.888 27.466 254.398 28.8897 255.807 31.7371C256.633 30.4206 257.736 29.3796 259.113 28.6142C260.522 27.8487 262.037 27.466 263.66 27.466C266.508 27.466 268.743 28.3233 270.365 30.0379C271.988 31.7524 272.799 34.309 272.799 37.7075V50.7964H267.931V38.2127C267.931 33.8038 266.247 31.5993 262.879 31.5993C261.165 31.5993 259.756 32.2423 258.654 33.5282C257.583 34.8142 257.047 36.6512 257.047 39.0393V50.7964H252.179V38.2127C252.179 33.8038 250.479 31.5993 247.081 31.5993C245.397 31.5993 244.004 32.2423 242.902 33.5282C241.83 34.8142 241.294 36.6512 241.294 39.0393V50.7964H236.426ZM288.231 51.3475C285.996 51.3475 284.006 50.8576 282.261 49.8779C280.546 48.8675 279.199 47.4744 278.219 45.6986C277.24 43.9228 276.75 41.8561 276.75 39.4986C276.75 37.1105 277.224 35.0132 278.173 33.2068C279.153 31.4003 280.5 29.9919 282.215 28.9816C283.96 27.9712 285.981 27.466 288.277 27.466C290.512 27.466 292.456 27.9712 294.11 28.9816C295.763 29.9613 297.049 31.2779 297.968 32.9312C298.886 34.5845 299.345 36.4063 299.345 38.3964C299.345 38.7026 299.33 39.0393 299.299 39.4068C299.299 39.7435 299.284 40.1263 299.253 40.5549H281.526C281.679 42.7593 282.399 44.4433 283.685 45.6068C285.001 46.7396 286.517 47.306 288.231 47.306C289.609 47.306 290.757 46.9998 291.676 46.3875C292.625 45.7445 293.329 44.8873 293.788 43.8156H298.656C298.044 45.9589 296.819 47.75 294.982 49.189C293.176 50.628 290.926 51.3475 288.231 51.3475ZM288.231 31.4616C286.608 31.4616 285.169 31.9514 283.914 32.9312C282.659 33.8803 281.893 35.3193 281.618 37.2482H294.477C294.385 35.4724 293.758 34.064 292.594 33.0231C291.431 31.9821 289.976 31.4616 288.231 31.4616ZM303.478 50.7964V28.0171H307.841L308.254 32.3342C309.05 30.8339 310.152 29.6552 311.561 28.7979C313 27.91 314.73 27.466 316.75 27.466V32.5638H315.419C314.071 32.5638 312.862 32.7934 311.79 33.2527C310.75 33.6813 309.908 34.4314 309.265 35.5031C308.652 36.544 308.346 37.9984 308.346 39.866V50.7964H303.478ZM330.171 51.3475C327.936 51.3475 325.93 50.8423 324.154 49.8319C322.409 48.8216 321.031 47.4285 320.021 45.6527C319.041 43.8463 318.551 41.7643 318.551 39.4068C318.551 37.0492 319.041 34.9826 320.021 33.2068C321.031 31.4003 322.409 29.9919 324.154 28.9816C325.93 27.9712 327.936 27.466 330.171 27.466C332.987 27.466 335.345 28.2008 337.243 29.6705C339.172 31.1401 340.412 33.1302 340.963 35.6408H335.865C335.559 34.3855 334.886 33.4058 333.845 32.7016C332.804 31.9974 331.579 31.6453 330.171 31.6453C328.976 31.6453 327.874 31.9514 326.864 32.5638C325.854 33.1455 325.042 34.0181 324.43 35.1816C323.817 36.3144 323.511 37.7228 323.511 39.4068C323.511 41.0907 323.817 42.5144 324.43 43.6779C325.042 44.8107 325.854 45.6833 326.864 46.2956C327.874 46.908 328.976 47.2142 330.171 47.2142C331.579 47.2142 332.804 46.8621 333.845 46.1579C334.886 45.4537 335.559 44.4586 335.865 43.1727H340.963C340.443 45.6221 339.218 47.5969 337.289 49.0971C335.36 50.5974 332.987 51.3475 330.171 51.3475ZM355.979 51.3475C353.744 51.3475 351.754 50.8576 350.009 49.8779C348.294 48.8675 346.947 47.4744 345.967 45.6986C344.988 43.9228 344.498 41.8561 344.498 39.4986C344.498 37.1105 344.972 35.0132 345.921 33.2068C346.901 31.4003 348.248 29.9919 349.963 28.9816C351.708 27.9712 353.729 27.466 356.025 27.466C358.26 27.466 360.204 27.9712 361.858 28.9816C363.511 29.9613 364.797 31.2779 365.715 32.9312C366.634 34.5845 367.093 36.4063 367.093 38.3964C367.093 38.7026 367.078 39.0393 367.047 39.4068C367.047 39.7435 367.032 40.1263 367.001 40.5549H349.274C349.427 42.7593 350.147 44.4433 351.432 45.6068C352.749 46.7396 354.265 47.306 355.979 47.306C357.357 47.306 358.505 46.9998 359.424 46.3875C360.373 45.7445 361.077 44.8873 361.536 43.8156H366.404C365.792 45.9589 364.567 47.75 362.73 49.189C360.924 50.628 358.673 51.3475 355.979 51.3475ZM355.979 31.4616C354.356 31.4616 352.917 31.9514 351.662 32.9312C350.407 33.8803 349.641 35.3193 349.366 37.2482H362.225C362.133 35.4724 361.506 34.064 360.342 33.0231C359.179 31.9821 357.724 31.4616 355.979 31.4616Z" fill="white"/>
<circle cx="32" cy="36" r="17" stroke="white" stroke-width="4"/>
<path d="M39 36C39 41.018 38.0324 45.4631 36.5565 48.5789C35.0083 51.8472 33.2625 53 32 53C30.7375 53 28.9917 51.8472 27.4435 48.5789C25.9676 45.4631 25 41.018 25 36C25 30.982 25.9676 26.5369 27.4435 23.4211C28.9917 20.1528 30.7375 19 32 19C33.2625 19 35.0083 20.1528 36.5565 23.4211C38.0324 26.5369 39 30.982 39 36Z" stroke="white" stroke-width="4"/>
</svg>
